PathFileType	4	(X/Y/Z)	C:\Users\Basilio\Documents\Thesis Gigler\squatting_fais\c3dfiles\075\SLS_front_pre3\markers_experimental.trc
DataRate	CameraRate	NumFrames	NumMarkers	Units	OrigDataRate	OrigDataStartFrame	OrigNumFrames
200.000000	200.000000	4	61	mm	200.000000	831	1331
Frame#	Time	FHD			LBHD			C7			T10			CLAV			LSHO			LUUPA			LMUPA			LDUPA			LLEP			LMEP			LRAD			LUL			LRFIN			RSHO			RUPA1			RMUPA			RDUPA			RLEP			RMEP			RRAD			RUL			RUFIN			RASI			USACR			LSACR			RSACR			LTHI1			LTHI2			LTHI3			LTHI4			LLFC			LMFC			LTIB1			LTIB2			LTIB3			LTIB4			LLMAL			LMMAL			LHEE			LMT1			LMT2			LMT5			RTHI			RTHI2			RTHI3			RTHI4			RLFC			RMFC			RTIB1			RTIB2			RTIB3			RTIB4			RLMAL			RMMAL			RHEE			RMT1			RMT2			RMT5			LASI			RBHD			
		X1	Y1	Z1	X2	Y2	Z2	X3	Y3	Z3	X4	Y4	Z4	X5	Y5	Z5	X6	Y6	Z6	X7	Y7	Z7	X8	Y8	Z8	X9	Y9	Z9	X10	Y10	Z10	X11	Y11	Z11	X12	Y12	Z12	X13	Y13	Z13	X14	Y14	Z14	X15	Y15	Z15	X16	Y16	Z16	X17	Y17	Z17	X18	Y18	Z18	X19	Y19	Z19	X20	Y20	Z20	X21	Y21	Z21	X22	Y22	Z22	X23	Y23	Z23	X24	Y24	Z24	X25	Y25	Z25	X26	Y26	Z26	X27	Y27	Z27	X28	Y28	Z28	X29	Y29	Z29	X30	Y30	Z30	X31	Y31	Z31	X32	Y32	Z32	X33	Y33	Z33	X34	Y34	Z34	X35	Y35	Z35	X36	Y36	Z36	X37	Y37	Z37	X38	Y38	Z38	X39	Y39	Z39	X40	Y40	Z40	X41	Y41	Z41	X42	Y42	Z42	X43	Y43	Z43	X44	Y44	Z44	X45	Y45	Z45	X46	Y46	Z46	X47	Y47	Z47	X48	Y48	Z48	X49	Y49	Z49	X50	Y50	Z50	X51	Y51	Z51	X52	Y52	Z52	X53	Y53	Z53	X54	Y54	Z54	X55	Y55	Z55	X56	Y56	Z56	X57	Y57	Z57	X58	Y58	Z58	X59	Y59	Z59	X60	Y60	Z60	X61	Y61	Z61	

832	4.155	-236.9474487304688	1507.081298828125	-804.721130371094	-389.2320251464845	1394.090576171875	-870.8843383789065	-428.1778259277345	1303.203369140625	-802.0188598632815	-563.1495971679689	1013.005249023438	-785.3325805664065	-307.1891784667969	1209.768432617188	-792.5898437500002	-321.5989074707032	1275.071166992188	-918.4936523437502	-168.1223602294922	1227.710327148438	-1011.648681640625	-144.5491485595703	1245.523193359375	-971.2386474609377	-99.26057434082034	1225.232299804688	-1005.502685546875	-18.21460342407227	1220.87060546875	-991.403259277344	-28.85010147094727	1147.213500976563	-950.4833984375002	nan	nan	nan	221.4581146240235	1258.763549804688	-897.3504638671877	223.2432861328126	1280.979614257813	-792.2028808593752	-334.0009460449219	1269.52490234375	-666.1402587890626	-195.4300689697266	1239.747802734375	-559.1851196289064	-165.875961303711	1251.034423828125	-596.8621215820314	-124.9242858886719	1236.942626953125	-554.6132202148439	-54.43356704711915	1236.904907226563	-563.4633789062501	-41.1221046447754	1161.8349609375	-574.3245239257814	157.1932983398438	1263.081787109375	-739.9506835937501	176.3571319580078	1283.796508789063	-669.7024536132814	230.211166381836	1306.347900390625	-769.9129028320315	-443.9676818847657	818.986511230469	-667.8887329101564	-596.1932983398439	888.064880371094	-792.7301025390627	-604.8787841796876	857.8510742187502	-820.4551391601565	-605.0043945312501	855.9856567382815	-764.6497802734376	-352.5775756835938	680.5369262695314	-1013.18310546875	-269.5317687988282	664.2136840820314	-1015.291625976563	-248.6458740234376	701.2073364257814	-989.7020263671877	-240.6686096191407	612.1630859375001	-1015.414733886719	-164.9712371826172	536.3902587890626	-1008.964904785156	-125.398178100586	548.1983032226564	-886.9414672851565	-46.35962677001954	469.1661071777345	-978.9885253906252	-77.58390045166017	404.5983276367189	-1027.951538085938	-39.45668029785157	419.8592834472657	-1008.531372070313	-1.134754300117493	349.3211669921876	-978.4334106445315	7.478767871856691	186.9073791503907	-997.650329589844	24.86484718322755	217.2203674316407	-915.5498046875002	-37.32308197021485	144.7947235107422	-953.3652343750002	164.9835357666016	187.3558654785157	-910.9734497070315	173.4236297607422	184.4479370117188	-960.013610839844	146.6956634521485	145.8432769775391	-1006.435119628906	-413.5733947753907	634.7103881835939	-617.1926269531251	-348.2693481445313	623.0758056640626	-619.4286499023439	-328.9019470214844	650.0203857421876	-628.2571411132814	-312.0952758789063	547.6032714843751	-630.5756225585939	-231.1451416015626	433.5498046875001	-674.4864501953126	-204.7421569824219	453.3362121582032	-795.4606933593752	-213.0907897949219	304.5097045898438	-767.5606689453126	-285.3831481933594	239.4525909423829	-718.9940795898439	-254.8528442382813	228.5396575927735	-755.3745117187501	-284.2484436035157	200.7705841064454	-799.1624755859377	-390.6111755371095	106.1744079589844	-772.4089965820315	-354.7472839355469	135.4925384521485	-852.329284667969	-446.014129638672	91.99143981933595	-836.307556152344	-242.5733184814454	55.21982955932619	-824.4683227539065	-246.4666900634766	56.85217666625978	-781.9404296875002	-289.4459533691407	35.74733352661134	-734.9995117187501	-444.5500488281251	833.2163696289065	-916.3914184570315	-349.8274230957032	1434.378784179688	-718.3458862304689	
833	4.16	-237.5704956054688	1509.716674804688	-804.7758789062502	-389.9635314941407	1396.562866210938	-870.8861083984377	-428.5623474121095	1305.410278320313	-801.8155517578127	-562.9945678710939	1015.007080078125	-785.2513427734377	-307.4004516601563	1212.2119140625	-792.5611572265627	-322.1330871582032	1277.305541992188	-918.422790527344	-168.5849914550782	1230.268798828125	-1011.68701171875	-145.0911254882813	1248.196655273438	-971.3723754882815	-99.79673767089847	1227.799682617188	-1005.623779296875	-18.48167610168457	1223.623413085938	-991.508483886719	-29.13154602050782	1149.979858398438	-950.6702880859377	nan	nan	nan	221.1475219726563	1261.557373046875	-897.558532714844	223.8504486083985	1283.62255859375	-791.9519653320315	-334.1646118164063	1272.036254882813	-665.9810180664064	-195.6109313964844	1242.209106445313	-559.2567749023439	-166.1124725341797	1253.579345703125	-596.9338378906251	-125.1476364135742	1239.657958984375	-554.6034545898439	-54.64086532592775	1239.624267578125	-563.5289916992189	-41.22435760498048	1164.507202148438	-574.3931884765626	156.7173004150391	1266.01318359375	-740.2927856445314	176.044921875	1286.553955078125	-669.9546508789064	230.0032196044922	1309.041137695313	-770.0156860351565	-443.6012573242189	821.0090942382815	-667.9376831054689	-595.7817382812501	890.2867431640627	-792.6931762695315	-604.5872192382814	860.0366821289065	-820.370788574219	-604.5997924804689	858.084899902344	-764.5797119140626	-352.2174377441407	682.5042724609376	-1013.213317871094	-269.2897338867188	666.1661376953126	-1015.262390136719	-248.1720428466797	703.0548095703126	-989.512145996094	-239.7456970214844	613.7674560546876	-1015.254760742188	-164.2837219238282	538.0328369140626	-1008.722412109375	-125.3204803466797	549.7967529296876	-886.8479003906252	-46.42436599731446	470.7684326171876	-979.1167602539065	-77.51628875732423	406.2926635742189	-1028.024658203125	-39.08552551269532	421.5081481933595	-1008.303100585938	-1.546658992767334	350.8354187011719	-978.4617919921877	6.921420097351076	188.3926086425782	-997.6843261718752	24.58816719055176	218.7319946289063	-915.5999755859377	-37.69408416748048	146.2774353027344	-953.4941406250002	164.6756591796875	188.5374145507813	-911.1491699218752	173.2710571289063	185.6282501220703	-960.0249633789065	146.3279113769532	147.2955017089844	-1006.795288085938	-413.6968383789064	636.2950439453126	-617.2232666015626	-348.4140930175782	624.3375854492189	-619.4614868164064	-328.8523254394532	651.1838989257814	-628.3184814453126	-312.5248107910157	548.8549194335939	-630.5593872070314	-232.2293090820313	434.1478881835939	-674.6389770507814	-205.5090026855469	453.997283935547	-795.546081542969	-213.6397399902344	305.0091552734376	-767.4237670898439	-285.8745117187501	239.7602539062501	-718.8305053710939	-255.2710266113282	228.8670654296876	-755.1691894531251	-284.4759521484376	200.9574279785157	-799.106628417969	-390.6507263183595	106.1642761230469	-772.3476562500002	-354.8288574218751	135.5369415283203	-852.3348388671877	-445.9827575683595	91.96307373046876	-836.3012695312502	-242.471420288086	55.17904663085939	-824.3668212890627	-246.5204467773438	56.79072189331056	-781.9732055664065	-289.3775939941407	35.7767562866211	-734.9617309570314	-444.2352905273439	835.2866210937502	-916.357360839844	-350.3622131347657	1436.7724609375	-717.9479980468751	
834	4.165	-238.026596069336	1512.242065429688	-804.6752929687502	-390.373016357422	1399.273193359375	-870.7143554687502	-428.8174743652345	1307.8310546875	-801.6540527343752	-562.6541748046876	1017.081726074219	-785.135437011719	-307.6312866210938	1214.6962890625	-792.5679321289065	-322.4649353027344	1279.920043945313	-918.4792480468752	-169.284652709961	1233.017456054688	-1011.865966796875	-145.4334106445313	1250.666381835938	-971.4133911132815	-99.8064880371094	1230.31640625	-1005.632263183594	-18.94450378417969	1226.261474609375	-991.6789550781252	-29.66662788391114	1152.629272460938	-951.0425415039065	nan	nan	nan	220.8303833007813	1264.415405273438	-897.7950439453127	224.1128997802735	1286.6201171875	-791.720886230469	-334.4833068847657	1274.350341796875	-665.9903564453126	-195.7183227539063	1244.789428710938	-559.2534179687501	-166.1899566650391	1256.16845703125	-596.9510498046876	-125.3090362548828	1242.129028320313	-554.6601562500001	-54.80482101440431	1242.343994140625	-563.6959228515626	-41.32061004638673	1167.129760742188	-574.4471435546876	156.3105163574219	1268.56787109375	-740.3273315429689	175.8852233886719	1289.447387695313	-670.0614624023439	229.562240600586	1311.921264648438	-770.320007324219	-443.1551818847657	822.9922485351565	-667.7855224609376	-595.6276855468751	892.387634277344	-792.5551757812502	-604.0598754882814	862.180603027344	-820.3440551757815	-604.1127929687501	860.247497558594	-764.4900512695314	-352.1017456054688	684.4708862304689	-1013.239562988281	-269.2376098632813	668.0925903320314	-1015.345458984375	-248.0934448242188	704.8278808593751	-989.4810180664065	-239.5883789062501	615.6420898437501	-1015.297668457031	-164.7512969970703	539.9373168945314	-1008.932800292969	-125.2605133056641	551.3888549804689	-886.8049316406252	-46.36647415161134	472.3201599121095	-978.950866699219	-77.61510467529298	407.8263244628907	-1028.031372070313	-39.63251113891602	423.0467224121095	-1008.406555175781	-1.417283654212952	352.3708190917969	-978.5059814453127	6.78541946411133	189.7856140136719	-997.6367797851565	24.33119773864747	220.1590118408204	-915.5696411132815	-38.14457321166993	147.8492126464844	-953.3502197265627	163.8323669433594	190.3097534179688	-911.6326293945315	172.5602569580078	187.069320678711	-960.3685302734377	145.8711242675782	148.616683959961	-1006.762145996094	-413.6942443847657	638.0355224609376	-617.0341796875001	-348.5270080566407	625.6822509765626	-619.3583374023439	-328.9162902832032	652.3249511718751	-628.1436157226564	-313.0206604003907	549.9217529296876	-630.5723876953126	-233.2002258300782	434.8444213867189	-674.6218872070314	-206.1806182861329	454.568084716797	-795.454772949219	-214.436508178711	305.5611877441407	-767.2377929687501	-286.4175720214844	240.0304565429688	-718.7017211914064	-255.6639404296876	229.2908935546876	-754.9455566406251	-284.8085327148438	201.2092895507813	-798.9637451171877	-390.723358154297	106.1653137207032	-772.2913818359377	-354.8159179687501	135.5920562744141	-852.1497802734377	-445.9864196777345	91.98773193359376	-836.2459106445315	-242.3729400634766	55.08123779296876	-824.329772949219	-246.4766387939454	56.81484985351564	-781.952331542969	-289.4491577148438	35.70072555541993	-734.9699707031251	-443.6162109375001	837.683776855469	-916.2620239257815	-350.8227539062501	1439.167724609375	-717.6768798828126	
835	4.17	-239.3184814453126	1514.906982421875	-805.0208740234377	-390.8462219238282	1401.523315429688	-870.3547973632815	-429.1123046875001	1310.123901367188	-801.5546875000002	-562.5373535156251	1019.0986328125	-785.1105957031252	-307.9788513183594	1217.256469726563	-792.5046386718752	-322.8250427246094	1282.403564453125	-918.305603027344	-170.3682098388672	1235.830078125	-1012.17333984375	-145.7897644042969	1253.313842773438	-971.429626464844	-100.4532623291016	1232.9140625	-1005.639770507813	-19.05933380126953	1228.838500976563	-991.8309326171877	-29.74792480468751	1155.170776367188	-950.8748779296877	nan	nan	nan	220.4873504638672	1267.146484375	-897.9812622070315	223.1447448730469	1289.655395507813	-792.1409912109377	-334.7118530273438	1276.779541015625	-665.8755493164064	-195.8531799316407	1247.223999023438	-559.2989501953126	-166.419189453125	1258.635009765625	-596.9832763671876	-125.4605712890625	1244.82861328125	-554.6751708984376	-54.94081878662111	1245.030639648438	-563.7994384765626	-41.34259796142579	1169.795288085938	-574.4248657226564	156.3621215820313	1271.321044921875	-740.6248779296876	175.6402435302735	1292.309936523438	-670.3597412109376	229.3802490234376	1314.734008789063	-770.4842529296877	-442.7546386718751	825.0092773437502	-667.6477050781251	-594.8834838867189	894.3818969726565	-792.5086669921877	-603.6348876953126	864.2761840820315	-820.242858886719	-603.7913208007814	862.2837524414065	-764.3661499023439	-351.7789916992188	686.3974609375001	-1013.178771972656	-268.7973632812501	669.8624877929689	-1015.243041992188	-247.7511749267579	706.7355957031251	-989.503112792969	-239.3776397705079	617.5247802734376	-1015.096862792969	-164.1674194335938	541.4037475585939	-1008.687194824219	-125.1354217529297	553.1094360351564	-886.7432250976565	-46.37230300903321	473.941864013672	-979.0347290039065	-77.72261047363283	409.4461975097657	-1027.98583984375	-39.65146636962891	424.6236267089845	-1008.565490722656	-1.78532361984253	353.9105529785157	-978.4578247070315	6.559924125671388	191.2367248535157	-997.6616210937502	23.99059104919434	221.6031494140626	-915.5507812500002	-38.39771270751954	149.3813171386719	-953.424011230469	163.40234375	191.8166656494141	-911.7688598632815	172.0028076171875	188.6918182373047	-960.579284667969	145.3853759765625	149.7291564941407	-1006.438659667969	-413.7850341796876	639.5285644531251	-616.9937133789064	-348.6773376464844	626.8969116210939	-619.3085937500001	-328.9340820312501	653.4577026367189	-628.1671752929689	-313.6060791015626	550.8845214843751	-630.5786132812501	-234.1235961914063	435.496063232422	-674.5994873046876	-207.1041412353516	454.8931884765626	-795.313171386719	-215.3273315429688	306.0496826171876	-767.0501708984376	-287.0230407714844	240.2296752929688	-718.5572509765626	-256.0129089355469	229.5699615478516	-754.7350463867189	-285.2250976562501	201.4680175781251	-798.8430175781252	-390.8242187500001	106.1180953979492	-772.2276000976565	-354.8573913574219	135.6489715576172	-852.0426025390627	-446.0577087402345	92.0179901123047	-836.191345214844	-242.3053283691407	55.15325927734376	-824.2639770507815	-246.4807586669922	56.81577301025392	-781.8692016601565	-289.4264526367188	35.66943359375001	-734.9581909179689	-443.4281616210939	839.4094238281252	-916.0432739257815	-351.2568969726563	1441.523803710938	-717.4512329101564	
